<mxfile host="app.diagrams.net" modified="2023-02-16T15:56:17.742Z" agent="5.0 (Windows)" etag="CQhEELfwwIX4RkXX67Aq" version="20.8.20" type="github">
  <diagram id="C5RBs43oDa-KdzZeNtuy" name="Page-1">
    <mxGraphModel dx="1434" dy="782" grid="1" gridSize="10" guides="1" tooltips="1" connect="1" arrows="1" fold="1" page="1" pageScale="1" pageWidth="827" pageHeight="1169" math="0" shadow="0">
      <root>
        <mxCell id="WIyWlLk6GJQsqaUBKTNV-0" />
        <mxCell id="WIyWlLk6GJQsqaUBKTNV-1" parent="WIyWlLk6GJQsqaUBKTNV-0" />
        <mxCell id="O6wt21U3iaKG9nuLbyaY-1" style="edgeStyle=orthogonalEdgeStyle;rounded=0;orthogonalLoop=1;jettySize=auto;html=1;entryX=0.5;entryY=0;entryDx=0;entryDy=0;fontStyle=1;strokeWidth=6;" edge="1" parent="WIyWlLk6GJQsqaUBKTNV-1" source="O6wt21U3iaKG9nuLbyaY-0" target="O6wt21U3iaKG9nuLbyaY-2">
          <mxGeometry relative="1" as="geometry">
            <mxPoint x="330" y="250" as="targetPoint" />
          </mxGeometry>
        </mxCell>
        <mxCell id="O6wt21U3iaKG9nuLbyaY-0" value="Start" style="ellipse;whiteSpace=wrap;html=1;fontStyle=1;" vertex="1" parent="WIyWlLk6GJQsqaUBKTNV-1">
          <mxGeometry x="230" y="90" width="160" height="110" as="geometry" />
        </mxCell>
        <mxCell id="O6wt21U3iaKG9nuLbyaY-3" style="edgeStyle=orthogonalEdgeStyle;rounded=0;orthogonalLoop=1;jettySize=auto;html=1;entryX=0.5;entryY=0;entryDx=0;entryDy=0;fontStyle=1;strokeWidth=6;" edge="1" parent="WIyWlLk6GJQsqaUBKTNV-1" source="O6wt21U3iaKG9nuLbyaY-2" target="O6wt21U3iaKG9nuLbyaY-4">
          <mxGeometry relative="1" as="geometry">
            <mxPoint x="330" y="370" as="targetPoint" />
          </mxGeometry>
        </mxCell>
        <mxCell id="O6wt21U3iaKG9nuLbyaY-2" value="&lt;div&gt;pobrać wartość a&lt;/div&gt;&lt;div&gt;ustaw b=2&lt;br&gt;&lt;/div&gt;" style="rounded=0;whiteSpace=wrap;html=1;fontStyle=1;" vertex="1" parent="WIyWlLk6GJQsqaUBKTNV-1">
          <mxGeometry x="230" y="240" width="160" height="80" as="geometry" />
        </mxCell>
        <mxCell id="O6wt21U3iaKG9nuLbyaY-5" style="edgeStyle=orthogonalEdgeStyle;rounded=0;orthogonalLoop=1;jettySize=auto;html=1;fontStyle=1;entryX=0.5;entryY=0;entryDx=0;entryDy=0;strokeWidth=6;" edge="1" parent="WIyWlLk6GJQsqaUBKTNV-1" source="O6wt21U3iaKG9nuLbyaY-4" target="O6wt21U3iaKG9nuLbyaY-6">
          <mxGeometry relative="1" as="geometry">
            <mxPoint x="330" y="490" as="targetPoint" />
          </mxGeometry>
        </mxCell>
        <mxCell id="O6wt21U3iaKG9nuLbyaY-4" value="wyświetl a+b" style="rounded=0;whiteSpace=wrap;html=1;fontStyle=1;" vertex="1" parent="WIyWlLk6GJQsqaUBKTNV-1">
          <mxGeometry x="230" y="360" width="160" height="80" as="geometry" />
        </mxCell>
        <mxCell id="O6wt21U3iaKG9nuLbyaY-8" value="" style="edgeStyle=orthogonalEdgeStyle;rounded=0;orthogonalLoop=1;jettySize=auto;html=1;exitX=0.5;exitY=0;exitDx=0;exitDy=0;" edge="1" parent="WIyWlLk6GJQsqaUBKTNV-1" source="O6wt21U3iaKG9nuLbyaY-6" target="O6wt21U3iaKG9nuLbyaY-4">
          <mxGeometry relative="1" as="geometry" />
        </mxCell>
        <mxCell id="O6wt21U3iaKG9nuLbyaY-6" value="Stop" style="ellipse;whiteSpace=wrap;html=1;fontStyle=1;" vertex="1" parent="WIyWlLk6GJQsqaUBKTNV-1">
          <mxGeometry x="225" y="510" width="170" height="100" as="geometry" />
        </mxCell>
      </root>
    </mxGraphModel>
  </diagram>
</mxfile>
